<?xml version="1.0" encoding="iso-8859-1"?>
<svg height="800px" width="800px" version="1.1" id="Layer_1" xmlns="http://www.w3.org/2000/svg" xmlns:xlink="http://www.w3.org/1999/xlink" 
	 viewBox="0 0 504.123 504.123" xml:space="preserve">
<path style="fill:#3A2212;" d="M447.055,109.954c15.754,0,28.53,12.776,28.53,28.53v233.047c0,15.762-12.776,28.538-28.53,28.538
	H57.068c-15.754,0-28.53-12.776-28.53-28.538V138.484c0-15.754,12.776-28.53,28.53-28.53H447.055 M447.055,81.424H57.068
	C25.6,81.424,0,107.024,0,138.484v233.047c0,31.468,25.6,57.076,57.068,57.076h389.986c31.468,0,57.068-25.608,57.068-57.076
	V138.484C504.123,107.024,478.523,81.424,447.055,81.424L447.055,81.424z"/>
<path style="fill:#02994A;" d="M57.068,408.426c-23.599,0-42.803-19.204-42.803-42.803V132.576
	c0-23.599,19.204-42.803,42.803-42.803h389.986c23.591,0,42.803,19.204,42.803,42.803v233.047c0,23.599-19.204,42.803-42.803,42.803
	L57.068,408.426L57.068,408.426z"/>
<path style="fill:#038462;" d="M447.055,89.773c23.591,0,42.803,19.204,42.803,42.803v233.047c0,23.599-19.204,42.803-42.803,42.803
	H57.068c-23.599,0-42.803-19.204-42.803-42.803"/>
<path style="fill:#6B4125;" d="M447.055,104.046c15.754,0,28.53,12.776,28.53,28.53v233.047c0,15.762-12.776,28.538-28.53,28.538
	H57.068c-15.754,0-28.53-12.776-28.53-28.538V132.576c0-15.754,12.776-28.53,28.53-28.53H447.055 M447.055,75.516H57.068
	C25.6,75.516,0,101.116,0,132.576v233.047c0,31.468,25.6,57.076,57.068,57.076h389.986c31.468,0,57.068-25.608,57.068-57.076
	V132.576C504.123,101.116,478.523,75.516,447.055,75.516L447.055,75.516z"/>
<path style="fill:#3A2212;" d="M432.9,395.926c4.632,4.632,4.632,12.13-0.016,16.762l0,0c-4.632,4.64-12.123,4.64-16.762,0
	l-41.913-41.913c-4.64-4.632-4.64-12.138,0-16.77l0,0c4.632-4.632,12.138-4.632,16.762,0L432.9,395.926z"/>
<g>
	<path style="fill:#FFFFFF;" d="M112.782,277.252H76.8v-23.048h33.445c1.922,0,3.474-1.552,3.474-3.45V238.6
		c0-1.906-1.552-3.45-3.474-3.45H76.8v-14.446h35.218c1.922,0,3.474-1.544,3.474-3.45v-12.398c0-1.914-1.552-3.458-3.474-3.458
		h-51.57c-1.922,0-3.474,1.544-3.474,3.458v88.505c0,1.93,1.552,3.474,3.474,3.474h52.342c1.906,0,3.458-1.544,3.458-3.474v-12.635
		C116.248,278.796,114.696,277.252,112.782,277.252z"/>
	<path style="fill:#FFFFFF;" d="M292.982,202.579c-0.26-1.481-1.465-2.599-2.954-2.796c-1.489-0.173-2.922,0.599-3.568,1.938
		l-26.459,55.524l-26.459-55.524c-0.646-1.355-2.064-2.119-3.568-1.938c-1.504,0.197-2.694,1.323-2.954,2.796l-16.707,90.144
		c-0.181,1.032,0.095,2.056,0.756,2.844c0.662,0.803,1.646,1.26,2.662,1.26h13.399c1.678,0,3.119-1.221,3.419-2.883l6.829-39.109
		l19.495,41.63c0.551,1.205,1.788,2.001,3.135,2.001c1.339,0,2.552-0.796,3.119-2.001l19.511-41.63l6.814,39.109
		c0.291,1.662,1.741,2.883,3.419,2.883h13.399c0,0,0.063,0,0.079,0c1.906,0,3.458-1.544,3.458-3.474c0-0.457-0.095-0.882-0.244-1.3
		L292.982,202.579z"/>
</g>
<g>
	<path style="fill:#B3CEBF;" d="M210.306,292.722c-0.181,1.032,0.095,2.056,0.756,2.844c0.662,0.803,1.646,1.26,2.662,1.26h13.399
		c1.678,0,3.119-1.221,3.419-2.883l6.829-39.109l19.495,41.63c0.551,1.205,1.788,2.001,3.135,2.001c1.339,0,2.552-0.796,3.119-2.001
		l19.511-41.63l6.814,39.109c0.291,1.662,1.741,2.883,3.419,2.883h13.399c0,0,0.063,0,0.079,0c1.906,0,3.458-1.544,3.458-3.474
		c0-0.457-0.095-0.882-0.244-1.3l-16.573-89.474c-0.26-1.481-1.465-2.599-2.954-2.796c-1.489-0.173-2.922,0.599-3.568,1.938
		l-26.459,55.524l-17.629-37.006L221.247,233.7L210.306,292.722z"/>
	<path style="fill:#B3CEBF;" d="M392.507,202.847c-5.6-2.001-11.091-2.97-16.849-2.97c-26.923,0-48.845,22.15-48.845,49.365
		c0,27.136,21.922,49.231,48.845,49.231c5.75,0,11.248-0.985,16.849-2.993c1.386-0.488,2.308-1.804,2.308-3.261v-14.281
		c0-1.245-0.693-2.418-1.788-3.033c-1.111-0.599-2.45-0.559-3.521,0.095c-4.151,2.591-8.814,3.907-13.848,3.907
		c-15.447,0-28.018-13.296-28.018-29.664c0-16.439,12.572-29.798,28.018-29.798c4.892,0,9.539,1.355,13.848,4.049
		c1.079,0.646,2.418,0.685,3.521,0.071c1.095-0.614,1.788-1.764,1.788-3.025v-14.423
		C394.815,204.642,393.893,203.343,392.507,202.847z"/>
</g>
<g>
	<path style="fill:#FFFFFF;" d="M188.014,230.817h-44.922c-1.323,0-2.402,1.087-2.402,2.395v7.554c0,1.339,1.079,2.402,2.402,2.402
		h44.922c1.323,0,2.418-1.063,2.418-2.402v-7.554C190.432,231.897,189.338,230.817,188.014,230.817z"/>
	<path style="fill:#FFFFFF;" d="M188.014,255.055h-44.922c-1.323,0-2.402,1.063-2.402,2.402v7.554c0,1.331,1.079,2.395,2.402,2.395
		h44.922c1.323,0,2.418-1.063,2.418-2.395v-7.554C190.432,256.118,189.338,255.055,188.014,255.055z"/>
</g>
<g>
	<path style="fill:#B3CEBF;" d="M188.014,267.398c1.323,0,2.418-1.063,2.418-2.395v-7.554c0-1.339-1.095-2.402-2.418-2.402h-0.276
		l-19.361,12.343h19.637V267.398z"/>
	<path style="fill:#B3CEBF;" d="M444.739,250.975h-15.612l13.414-17.093c2.922-3.742,4.616-6.892,4.616-11.926
		c0-9.704-8.428-17.597-18.818-17.597c-10.35,0-18.786,7.893-18.786,17.597c0,4.372,1.741,8.365,4.553,11.445l7.326-9.602
		c-0.158-0.599-0.276-1.189-0.276-1.843c0-3.868,3.151-7.05,7.058-7.05c3.844,0,7.105,3.23,7.105,7.05
		c0,1.607-0.583,3.111-1.552,4.293l-9.57,12.895c0.032,0.016,0.063,0.016,0.063,0.016l-14.675,19.031
		c-0.465,0.614-0.536,1.449-0.213,2.135c0.37,0.693,1.063,1.142,1.843,1.142h33.524c1.111,0,2.048-0.914,2.048-2.032v-6.412
		C446.787,251.896,445.85,250.975,444.739,250.975z"/>
</g>
<path style="fill:#FFFFFF;" d="M424.204,387.23c4.632,4.632,4.632,12.13-0.016,16.762l0,0c-4.632,4.639-12.123,4.639-16.762,0
	l-41.913-41.913c-4.632-4.632-4.632-12.138,0-16.77l0,0c4.632-4.632,12.138-4.632,16.77,0L424.204,387.23z"/>
<path style="fill:#C3DDCD;" d="M365.505,345.309L365.505,345.309c4.632-4.632,12.138-4.632,16.77,0l41.921,41.921
	c4.632,4.632,4.632,12.13-0.016,16.762l0,0"/>
</svg>