<?xml version="1.0" encoding="iso-8859-1"?>
<svg height="800px" width="800px" version="1.1" id="Layer_1" xmlns="http://www.w3.org/2000/svg" xmlns:xlink="http://www.w3.org/1999/xlink" 
	 viewBox="0 0 297 297" xml:space="preserve">
<g>
	<g id="XMLID_45_">
		<g>
			<path style="fill:#FFA800;" d="M286.999,265.11v5.95c0,8.79-7.15,15.94-15.93,15.94h-254l269.93-269.93v46.71h-10.94
				c-2.76,0-5,2.24-5,5s2.24,5,5,5h10.94v21.89h-26.89c-2.76,0-5,2.24-5,5s2.24,5,5,5h26.89v21.89h-10.94c-2.76,0-5,2.23-5,5
				c0,2.76,2.24,5,5,5h10.94v21.88h-26.89c-2.76,0-5,2.24-5,5c0,2.77,2.24,5,5,5h26.89v21.89h-10.94c-2.76,0-5,2.24-5,5
				c0,2.77,2.24,5,5,5h10.94v21.89h-26.89c-2.76,0-5,2.24-5,5s2.24,5,5,5h26.89v21.89h-10.94c-2.76,0-5,2.24-5,5c0,2.76,2.24,5,5,5
				H286.999z M239.989,234.99v-95.67c0-2.02-1.22-3.85-3.09-4.62c-1.86-0.77-4.02-0.35-5.45,1.09l-95.66,95.66
				c-1.43,1.43-1.86,3.58-1.09,5.45c0.78,1.87,2.6,3.09,4.62,3.09h95.67C237.749,239.99,239.989,237.75,239.989,234.99z"/>
			<path d="M296.999,5v266.06c0,14.31-11.63,25.94-25.93,25.94H4.999c-2.02,0-3.84-1.22-4.62-3.09c-0.77-1.86-0.34-4.02,1.09-5.44
				l287-287c1.43-1.44,3.58-1.86,5.45-1.09S296.999,2.98,296.999,5z M286.999,271.06v-5.95h-10.94c-2.76,0-5-2.24-5-5s2.24-5,5-5
				h10.94v-21.89h-26.89c-2.76,0-5-2.24-5-5s2.24-5,5-5h26.89v-21.89h-10.94c-2.76,0-5-2.23-5-5c0-2.76,2.24-5,5-5h10.94v-21.89
				h-26.89c-2.76,0-5-2.23-5-5c0-2.76,2.24-5,5-5h26.89v-21.88h-10.94c-2.76,0-5-2.24-5-5c0-2.77,2.24-5,5-5h10.94v-21.89h-26.89
				c-2.76,0-5-2.24-5-5s2.24-5,5-5h26.89V73.78h-10.94c-2.76,0-5-2.24-5-5s2.24-5,5-5h10.94V17.07L17.069,287h254
				C279.849,287,286.999,279.85,286.999,271.06z"/>
			<path d="M239.989,139.32v95.67c0,2.76-2.24,5-5,5h-95.67c-2.02,0-3.84-1.22-4.62-3.09c-0.77-1.87-0.34-4.02,1.09-5.45
				l95.66-95.66c1.43-1.44,3.59-1.86,5.45-1.09C238.769,135.47,239.989,137.3,239.989,139.32z M229.989,229.99v-78.6l-78.6,78.6
				L229.989,229.99L229.989,229.99z"/>
		</g>
	</g>
</g>
</svg>